<?xml version="1.0" encoding="UTF-8" standalone="no"?>
<!-- Created with Inkscape (http://www.inkscape.org/) -->

<svg
   xmlns:dc="http://purl.org/dc/elements/1.1/"
   xmlns:cc="http://creativecommons.org/ns#"
   xmlns:rdf="http://www.w3.org/1999/02/22-rdf-syntax-ns#"
   xmlns:svg="http://www.w3.org/2000/svg"
   xmlns="http://www.w3.org/2000/svg"
   xmlns:sodipodi="http://sodipodi.sourceforge.net/DTD/sodipodi-0.dtd"
   xmlns:inkscape="http://www.inkscape.org/namespaces/inkscape"
   width="39.784786mm"
   height="19.625278mm"
   viewBox="0 0 39.784786 19.625278"
   version="1.1"
   id="svg8"
   inkscape:version="0.92.3 (2405546, 2018-03-11)"
   sodipodi:docname="skyplan.svg">
  <defs
     id="defs2" />
  <sodipodi:namedview
     id="base"
     pagecolor="#ffffff"
     bordercolor="#666666"
     borderopacity="1.0"
     inkscape:pageopacity="0.0"
     inkscape:pageshadow="2"
     inkscape:zoom="0.7"
     inkscape:cx="-165.26855"
     inkscape:cy="128.99328"
     inkscape:document-units="mm"
     inkscape:current-layer="layer1"
     showgrid="false"
     fit-margin-top="0"
     fit-margin-left="0"
     fit-margin-right="0"
     fit-margin-bottom="0"
     inkscape:window-width="1920"
     inkscape:window-height="1057"
     inkscape:window-x="1672"
     inkscape:window-y="-8"
     inkscape:window-maximized="1" />
  <metadata
     id="metadata5">
    <rdf:RDF>
      <cc:Work
         rdf:about="">
        <dc:format>image/svg+xml</dc:format>
        <dc:type
           rdf:resource="http://purl.org/dc/dcmitype/StillImage" />
        <dc:title></dc:title>
      </cc:Work>
    </rdf:RDF>
  </metadata>
  <g
     inkscape:label="Layer 1"
     inkscape:groupmode="layer"
     id="layer1"
     transform="translate(-115.42308,-91.395698)">
    <g
   id="g818"
   transform="matrix(0.26458333,0,0,0.26458333,-114.24689,-627.62273)">
        <g
   id="g816"
   transform="matrix(0.277944,0,0,0.277944,868.044,2717.55)">
            <path
   style="fill:#ffffff;fill-opacity:1;fill-rule:nonzero"
   d="m 371.109,233.499 c -22.275,-22.171 -33.134,-33.65 -32.621,-34.48 0.522,-0.844 2.526,-1.1 6.224,-0.793 l 5.453,0.452 28.379,28.366 c 15.609,15.601 28.605,28.161 28.88,27.911 C 417.469,245.826 528,134.451 528,133.459 528,132.667 511.012,115.111 490.25,94.445 469.487,73.78 442.266,46.67 429.757,34.202 L 407.015,11.531 378.218,40.266 349.42,69 h -5.151 c -2.833,0 -5.455,-0.492 -5.826,-1.093 C 337.466,66.327 404.853,0 407.435,0 410.243,0 541,130.693 541,133.5 c 0,1.34 -22.141,24.152 -65.768,67.76 -53.551,53.529 -66.228,65.715 -68.25,65.607 -1.842,-0.098 -11.093,-8.704 -35.873,-33.368 z M 148,198.272 v -7.016 l 4.145,-0.663 c 5.625,-0.9 9.581,-3.943 10.908,-8.393 0.951,-3.188 0.601,-5.774 -2.535,-18.7 -3.401,-14.023 -6.201,-25.686 -12.003,-50 -1.312,-5.5 -3.038,-12.7 -3.836,-16 -0.797,-3.3 -1.122,-6.357 -0.722,-6.793 0.401,-0.436 4.503,-0.661 9.116,-0.5 l 8.386,0.293 1.127,5.5 c 0.62,3.025 1.674,8.65 2.342,12.5 1.339,7.713 2.721,15.254 6.138,33.5 1.053,5.619 2.928,10.377 2.937,7.45 0.003,-1.116 3.614,-22.499 5.141,-30.45 1.565,-8.148 2.567,-13.773 3.689,-20.715 0.553,-3.417 1.293,-6.68 1.645,-7.25 0.682,-1.103 18.522,-1.49 18.522,-0.401 0,0.349 -0.438,2.261 -0.974,4.25 -0.891,3.305 -5.276,21.505 -10.027,41.616 -1.04,4.4 -3.465,14.525 -5.39,22.5 -1.924,7.975 -4.238,17.65 -5.142,21.5 -4.104,17.488 -9.73,22.573 -26.731,24.16 L 148,205.289 Z M 29.251,182.495 C 20.992,181.009 14.712,177.714 10.074,172.431 5.113,166.781 0,154.508 0,148.25 c 0,-2.891 0.367,-3.214 5.25,-4.619 2.888,-0.831 7.028,-1.65 9.201,-1.821 l 3.951,-0.31 0.757,4.5 c 2.705,16.088 8.946,22.821 20.155,21.744 3.757,-0.361 5.585,-1.182 7.987,-3.584 2.914,-2.913 3.112,-3.571 3.052,-10.137 C 50.256,143.452 47.902,140.341 27.263,123.5 17.826,115.8 9.236,108.373 8.174,106.997 4.999,102.881 2,97.067 2,95.028 2,93.978 1.55,92.84 1,92.5 -0.254,91.725 -0.324,75.586 0.917,73.236 1.421,72.281 2.391,70 3.072,68.167 4.731,63.705 10.534,57.718 15.733,55.104 c 9.012,-4.53 24.934,-4.443 35.391,0.193 8.977,3.981 14.601,11.561 17.46,23.534 l 1.273,5.331 -3.178,1.308 c -1.749,0.72 -5.803,1.889 -9.01,2.597 -6.373,1.407 -7.622,0.798 -7.654,-3.734 C 49.992,80.988 46.56,73.795 43.574,70.828 40.469,67.744 34.86,66.494 28.447,67.456 21.959,68.428 19.5,72.289 19.5,81.5 c 0,10.088 0.942,11.324 20.668,27.123 20.183,16.165 25.594,23.178 28.417,36.827 1.386,6.703 1.451,8.819 0.411,13.5 -3.1,13.959 -11.235,21.732 -24.654,23.559 -2.663,0.362 -5.517,0.801 -6.342,0.975 -0.825,0.173 -4.762,-0.272 -8.749,-0.989 z m 301.209,-0.449 c -7.282,-2.951 -13.282,-14.868 -12.003,-23.84 2.174,-15.248 8.589,-22.226 28.293,-30.778 l 7.75,-3.364 0.313,-5.282 C 355.459,107.863 352.739,103 345.986,103 c -4.532,0 -7.462,2.947 -8.452,8.5 -1.075,6.03 -1.839,6.5 -10.583,6.5 -8.838,0 -9.118,-0.282 -7.764,-7.808 1.017,-5.656 3.318,-10.377 6.868,-14.092 10.726,-11.224 34.083,-9.785 42.055,2.592 5.222,8.106 5.191,7.876 5.99,44.308 0.416,18.975 0.901,35.4 1.078,36.5 0.298,1.853 -0.314,2.021 -8.349,2.288 -9.528,0.316 -8.883,0.738 -10.372,-6.788 -1.07,-5.411 -1.402,-5.431 -5.041,-0.3 -1.873,2.64 -4.863,5.588 -6.645,6.55 -3.374,1.822 -10.765,2.234 -14.311,0.796 z m 21.434,-16.947 3.106,-2.901 v -12.599 c 0,-6.93 -0.344,-12.599 -0.763,-12.599 -1.819,0 -11.351,7.282 -13.891,10.613 -2.307,3.025 -2.786,4.658 -2.813,9.601 -0.03,5.305 0.273,6.219 2.773,8.371 3.794,3.266 7.749,3.101 11.588,-0.486 z M 82.992,181.039 C 82.988,180.468 82.984,152.1 82.984,118 c 0,-34.1 0.003,-62.693 0.008,-63.539 0.006,-1.289 1.426,-1.492 8.758,-1.25 l 8.75,0.289 0.5,34.5 0.5,34.5 3.231,-4.5 c 1.777,-2.475 6.746,-9.675 11.041,-16 l 7.811,-11.5 9.208,-0.288 c 5.065,-0.158 9.209,-0.056 9.209,0.226 0,0.282 -4.519,7.495 -10.042,16.029 l -10.043,15.516 1.481,4.258 c 0.815,2.342 5.161,14.834 9.659,27.759 4.497,12.925 8.237,24.4 8.311,25.5 0.123,1.835 -0.576,2.023 -8.479,2.287 -10.047,0.334 -8.465,2.234 -14.394,-17.287 -6.613,-21.774 -7.879,-25.5 -8.657,-25.5 -0.424,0 -2.574,2.387 -4.777,5.306 l -4.006,5.305 -0.277,15.944 -0.276,15.945 -8.75,0.288 c -5.567,0.184 -8.753,-0.089 -8.758,-0.75 z m 129.467,-0.289 c -0.262,-0.687 -0.361,-29.6 -0.218,-64.25 l 0.259,-63 20.158,-0.27 c 18.519,-0.249 20.622,-0.097 25.865,1.864 12.764,4.776 18.492,15.332 18.462,34.022 -0.027,16.002 -4.88,24.837 -16.485,30.002 -3.894,1.733 -7.653,2.353 -17,2.804 l -12,0.578 -0.265,29.75 -0.265,29.75 h -9.016 c -6.292,0 -9.161,-0.378 -9.495,-1.25 z m 38.281,-75.115 c 4.418,-2.285 6.179,-4.9 7.402,-10.989 0.835,-4.157 0.855,-7.449 0.073,-12.168 C 256.307,70.967 251.86,67.5 239,67.5 h -7.5 l -0.273,18.969 c -0.15,10.433 -0.026,19.612 0.275,20.397 0.439,1.144 2.123,1.305 8.51,0.813 4.379,-0.338 9.207,-1.258 10.728,-2.044 z m 36.963,75.734 c -0.994,-0.993 -0.849,-125.591 0.148,-127.162 0.59,-0.931 3.178,-1.211 9.234,-1 L 305.5,53.5 v 128 l -8.548,0.286 c -4.701,0.158 -8.863,-0.03 -9.25,-0.416 z M 390,136.039 V 90 h 18 v 4 c 0,2.2 0.281,4 0.624,4 0.343,0 3.273,-1.769 6.511,-3.931 12.539,-8.374 23.599,-7.367 28.74,2.615 0.78,1.515 1.125,14.933 1.125,43.789 v 41.605 l -8.75,-0.289 -8.75,-0.288 L 426.99,145 c -0.281,-20.075 -0.893,-37.291 -1.361,-38.258 -1.76,-3.642 -9.377,-3.482 -14.701,0.31 l -2.903,2.067 -0.262,36.191 -0.263,36.191 -8.75,0.288 -8.75,0.289 z"
   id="path837"
   inkscape:connector-curvature="0" />

        </g>

    </g>

</g>
</svg>
